<svg xmlns="http://www.w3.org/2000/svg" viewBox="0 0 597.58 138.82"><defs><style>.cls-1{fill:#f18700;}.cls-2{fill:#fff;}.cls-3{fill:none;}.cls-4{fill:#192432;}.cls-5{fill:#41c0f0;}</style></defs><title>logo-full_H-pos</title><g id="Layer_2" data-name="Layer 2"><g id="Layer_1-2" data-name="Layer 1"><path class="cls-1" d="M457.34,59.25v7q0,.64-.61.64h-2.05q-.61,0-.61-.64V46.75q0-.64.61-.64h3.8A4.66,4.66,0,0,1,462,47.27a4.19,4.19,0,0,1,1.1,3v4.84a4.14,4.14,0,0,1-1.1,3,4.66,4.66,0,0,1-3.52,1.16Zm0-10.42v7.69h1.13q1.38,0,1.38-1.19V50q0-1.19-1.38-1.19Z"/><path class="cls-1" d="M466.4,50a4.22,4.22,0,0,1,1.09-3,5.87,5.87,0,0,1,7,0,4.22,4.22,0,0,1,1.09,3V63a4.22,4.22,0,0,1-1.09,3,5.87,5.87,0,0,1-7,0,4.22,4.22,0,0,1-1.09-3Zm5.91-.18q0-1.26-1.32-1.26t-1.32,1.26V63.2q0,1.26,1.32,1.26t1.32-1.26Z"/><path class="cls-1" d="M480,66.94q-.52,0-.52-.64V46.75q0-.64.61-.64H484a4.66,4.66,0,0,1,3.52,1.16,4.19,4.19,0,0,1,1.1,3v12.5a4.22,4.22,0,0,1-1.09,3A4.66,4.66,0,0,1,484,66.94Zm2.76-18.1V64.21H484q1.44,0,1.44-1.38V50.21q0-1.38-1.44-1.38Z"/><path class="cls-1" d="M501.32,63q0,4.17-4.44,4.17a4.4,4.4,0,0,1-3.4-1.15,4.32,4.32,0,0,1-1-3V50a4.32,4.32,0,0,1,1-3,4.4,4.4,0,0,1,3.4-1.15q4.44,0,4.44,4.17v2.11q0,.64-.61.64h-2a.57.57,0,0,1-.64-.64V49.78a1.19,1.19,0,0,0-2.39,0V63.26a1.19,1.19,0,0,0,2.39,0V60.47q0-.61.64-.61h2a.54.54,0,0,1,.61.61Z"/><path class="cls-1" d="M510.14,46.11a.69.69,0,0,1,.8.61l3.31,19.6q.09.61-.49.61h-2a.66.66,0,0,1-.74-.61l-.64-4.5h-2.82l-.67,4.5a.64.64,0,0,1-.7.61h-1.87q-.58,0-.49-.61l3.34-19.6a.68.68,0,0,1,.77-.61Zm-.8,8.76q-.15-1.13-.37-3.34a31.47,31.47,0,0,1-.37,3.34l-.7,4.32H510Z"/><path class="cls-1" d="M522.66,49.69q0-1.13-1.35-1.13T520,49.69v1.93a2.45,2.45,0,0,0,.86,2.05l3.31,2.57a4.26,4.26,0,0,1,1.72,3.62V63a4.22,4.22,0,0,1-1.09,3,5.77,5.77,0,0,1-7,0,4.22,4.22,0,0,1-1.09-3V60.59q0-.67.58-.67h2q.58,0,.58.67v2.63q0,1.26,1.38,1.26t1.41-1.26V60.78a2.68,2.68,0,0,0-1-2.21l-3.25-2.51a4.27,4.27,0,0,1-1.65-3.52V50q0-4.17,4.5-4.17t4.5,4.17V52q0,.64-.61.64h-2q-.58,0-.58-.64Z"/><path class="cls-1" d="M536.32,46.11q.64,0,.64.61v1.53q0,.58-.64.58h-2V66.29q0,.64-.55.64h-2.08q-.61,0-.61-.64V48.83h-2q-.61,0-.61-.58V46.72a.51.51,0,0,1,.61-.61Z"/><path class="cls-1" d="M553.64,66a5.48,5.48,0,0,1-3.91,1.15q-5,0-5-4V58.91A2.77,2.77,0,0,1,546.76,56a2.05,2.05,0,0,1-1.33-.9,3.07,3.07,0,0,1-.47-1.73V49.9q0-4,4.35-4T553.69,50v1.44q0,.64-.61.64h-2q-.61,0-.61-.64V49.72a1.16,1.16,0,1,0-2.33,0v3.65q0,1.38,1.53,1.38h5.91q.64,0,.64.61V56.8q0,.61-.64.61h-.8V63A4,4,0,0,1,553.64,66Zm-2-3.08V57.41h-2.17q-1.53,0-1.53,1.41V63q0,1.56,1.84,1.56T551.63,63Z"/><path class="cls-1" d="M466.77,93a.54.54,0,0,1-.61.61h-1.87a.54.54,0,0,1-.61-.61V79.89q-.18,1.1-.31,1.72L462.05,88a.73.73,0,0,1-.8.67h-1.78a.76.76,0,0,1-.8-.67l-1.35-6.4q-.15-.7-.31-1.68V93q0,.61-.58.61H454.7q-.64,0-.64-.61V73.39q0-.61.64-.61h3q.49,0,.64.64l1.65,8q.24,1.07.49,2.82.27-1.75.49-2.82l1.62-8q.15-.61.64-.61h2.91a.54.54,0,0,1,.61.61Z"/><path class="cls-1" d="M474.09,89.87q0,1.26,1.35,1.26t1.32-1.26V73.42q0-.64.61-.64h2.08q.55,0,.55.64V89.69a4.22,4.22,0,0,1-1.09,3,5.82,5.82,0,0,1-7,0,4.22,4.22,0,0,1-1.09-3V73.42q0-.64.61-.64h2.08q.55,0,.55.64Z"/><path class="cls-1" d="M487.35,90.88h3.06q.61,0,.61.58V93a.54.54,0,0,1-.61.61h-5.82q-.52,0-.52-.64V73.42q0-.64.61-.64h2.05q.61,0,.61.64Z"/><path class="cls-1" d="M499.94,72.78q.64,0,.64.61v1.53q0,.58-.64.58h-2V93q0,.64-.55.64h-2.08q-.61,0-.61-.64V75.51h-2q-.61,0-.61-.58V73.39a.51.51,0,0,1,.61-.61Z"/><path class="cls-1" d="M506.92,93q0,.64-.61.64h-2.05q-.61,0-.61-.64V73.42q0-.64.61-.64h2.05q.61,0,.61.64Z"/><path class="cls-1" d="M523.74,93a.54.54,0,0,1-.61.61h-1.87a.54.54,0,0,1-.61-.61V79.89q-.18,1.1-.31,1.72L519,88a.73.73,0,0,1-.8.67h-1.78a.76.76,0,0,1-.8-.67l-1.35-6.4q-.15-.7-.31-1.68V93q0,.61-.58.61h-1.75q-.64,0-.64-.61V73.39q0-.61.64-.61h3c.33,0,.54.21.64.64l1.65,8q.24,1.07.49,2.82.28-1.75.49-2.82l1.62-8q.15-.61.64-.61h2.91a.54.54,0,0,1,.61.61Z"/><path class="cls-1" d="M531.12,93q0,.64-.61.64h-2.05q-.61,0-.61-.64V73.42q0-.64.61-.64h2.05q.61,0,.61.64Zm-.31-22.24a.8.8,0,0,1-.7.4h-1.5q-.52,0-.4-.58l.21-1.51a.74.74,0,0,1,.8-.61h2.22c.43,0,.65.23.4.61Z"/><path class="cls-1" d="M535.74,93.61q-.52,0-.52-.64V73.42q0-.64.61-.64h3.92a4.66,4.66,0,0,1,3.52,1.16,4.19,4.19,0,0,1,1.1,3v12.5a4.22,4.22,0,0,1-1.09,3,4.66,4.66,0,0,1-3.54,1.16Zm2.76-18.1V90.88h1.19q1.44,0,1.44-1.38V76.88q0-1.38-1.44-1.38Z"/><path class="cls-1" d="M551.6,93q0,.64-.61.64h-2.05q-.61,0-.61-.64V73.42q0-.64.61-.64H551q.61,0,.61.64Z"/><path class="cls-1" d="M561,72.78a.69.69,0,0,1,.8.61L565.08,93q.09.61-.49.61h-2a.66.66,0,0,1-.74-.61l-.64-4.5H558.4l-.67,4.5a.64.64,0,0,1-.7.61h-1.87q-.58,0-.49-.61L558,73.39a.68.68,0,0,1,.77-.61Zm-.8,8.76q-.15-1.13-.37-3.34a31.47,31.47,0,0,1-.37,3.34l-.7,4.32h2.14Z"/><ellipse class="cls-2" cx="81.27" cy="101.35" rx="0.62" ry="1.07"/><rect class="cls-3" width="597.58" height="138.82"/><path class="cls-1" d="M383.47,67.35a7.42,7.42,0,0,0,4.36-6.07l-10.72.21q-.61,2.71-4.8,2.71h-2.95V61.63l-10.73.21V81.46l2.8-.35-1.85,1.25v.5h10.73V80.06h-.95V72.19h4.77a6.44,6.44,0,0,1,3.58.91,2.86,2.86,0,0,1,1.4,2.53v5.83q0,3.65-5,3.65h-4.77v-.83H358.63v7.35q0,2,1.9,2h13.61q8.14,0,11.86-3a9.42,9.42,0,0,0,3.72-7.68V75.14Q389.71,69.67,383.47,67.35Z"/><path class="cls-1" d="M367.57,58l1.79-.22V54.38h2.87a7.49,7.49,0,0,1,3.59.7,2.93,2.93,0,0,1,.08.61l-.58,4L386,59.23a9.54,9.54,0,0,0,0-1.08l.28-2.51,1.53-.19a8.62,8.62,0,0,0-3.73-6.8q-3.76-2.77-11.9-2.77H360.52q-1.9,0-1.9,2v9.74l-1.27.19-1.07,2.76L367,60.06Z"/><polygon class="cls-1" points="403.26 70.95 405.56 70.86 405.56 60.94 394.83 61.15 394.83 69.97 393.81 69.97 394.95 73.49 405.69 73.85 405.23 72.29 403.26 70.95"/><path class="cls-1" d="M394.83,91.63q0,2,1.9,2h7a1.81,1.81,0,0,0,1.44-.46,2.33,2.33,0,0,0,.39-1.51V75.32L394.83,75Z"/><path class="cls-1" d="M403.75,58.45l3.13-.07-1.31-1.06-1.75-.24.18-3.53,1.56-.19v-5.5a2.34,2.34,0,0,0-.39-1.51,1.83,1.83,0,0,0-1.44-.46h-7q-1.9,0-1.9,2v3l1.24,1.4-2.64.24L393,58.95l10.73-.48Z"/><path class="cls-1" d="M443,91.63l-.59-2.36H428.09l2,1.34,2,.2.18.82a2.18,2.18,0,0,0,2.31,2h7.09Q443.59,93.6,443,91.63Z"/><path class="cls-1" d="M431.15,86.7h1l.21,1h10.73l-.64-2.56h-1l-9.26-37.26a2.28,2.28,0,0,0-2.38-2h-7.15a2.33,2.33,0,0,0-2.46,2L414.66,70h-1.38V70l-2.73.1,1.32,1,1.63.2.45,2.73,9.8.33-.38-2.13L419.65,71l4.43,0q.77-3.72,1.9-12.56.9,8.14,1.75,12.56l1.2,6.29h-6.14l.27-1.34-9.8-.33-4,16.07q-.56,2,1.47,2h6.46a2.18,2.18,0,0,0,2.31-2l1.29-5.92h10.13Z"/><path class="cls-1" d="M331.9,57.81q0-3.65,4.91-3.65t5,3.65V68h10.73V56.62a10.15,10.15,0,0,0-3.82-8.07q-3.82-3.23-11.9-3.23T325,48.55a10.17,10.17,0,0,0-3.79,8.07V74.9H331.9Z"/><path class="cls-1" d="M351.62,72.29l2.24-2.07-10.73.32-2.24,2.22.11,8.86,2.15.19-1.55,1.13q-.77,2.38-4.79,2.38-4.91,0-4.91-3.65V79.95h-.35l.28-1.4,1.54-.23L335.24,77l-3.14.19v0l-10.73.32-1,4.68,3.94-.25-3.13,1.53c0,3.23,1.25,5.38,3.78,7.53s6.48,3.23,11.86,3.23,9.35-1.08,11.9-3.23a10.13,10.13,0,0,0,3.82-8.06v-2.2l-.8,0Z"/><path class="cls-1" d="M314.36,63.44H302.22V59.52l-10.73.32v15h10.73V72.29h12.14a1.74,1.74,0,0,0,2-2V65.27Q316.33,63.44,314.36,63.44Z"/><path class="cls-1" d="M315.27,45.89H293.38q-1.9,0-1.9,2V55l-.67-.08-.71,3.56c2.62-.08,8.85-.1,11.23-.18v-1l.89.11V54.72h13.05q2,0,2-1.9V47.71Q317.24,45.89,315.27,45.89Z"/><path class="cls-1" d="M301.32,78.75l0-.78-10.73.32.11,3.67,4-.2-3.24,1.64v8.23q0,2,1.9,2h7a1.83,1.83,0,0,0,1.44-.46,2.33,2.33,0,0,0,.38-1.51V80l2.52-1.31Z"/><path class="cls-4" d="M381.32,67.35a7.42,7.42,0,0,0,4.36-6.07L375,61.48q-.61,2.71-4.8,2.71h-2.95V61.63l-10.73.21V81.46l2.8-.35-1.85,1.25v.5h10.73V80.05h-.95V72.19H372a6.44,6.44,0,0,1,3.58.91,2.86,2.86,0,0,1,1.4,2.53v5.83q0,3.65-5,3.65h-4.77v-.83H356.48v7.35q0,2,1.9,2H372q8.14,0,11.86-3a9.42,9.42,0,0,0,3.72-7.68V75.14Q387.56,69.66,381.32,67.35Z"/><path class="cls-4" d="M365.42,58l1.79-.22V54.37h2.87a7.49,7.49,0,0,1,3.59.7,2.93,2.93,0,0,1,.08.61l-.58,4,10.71-.48a9.54,9.54,0,0,0,0-1.08l.28-2.51,1.53-.19a8.62,8.62,0,0,0-3.73-6.8q-3.76-2.77-11.9-2.77H358.38q-1.9,0-1.9,2v9.74l-1.27.19-1.07,2.76,10.73-.48Z"/><polygon class="cls-4" points="401.11 70.95 403.41 70.86 403.41 60.94 392.68 61.15 392.68 69.96 391.67 69.96 392.81 73.49 403.54 73.84 403.08 72.29 401.11 70.95"/><path class="cls-4" d="M392.68,91.63q0,2,1.9,2h7a1.81,1.81,0,0,0,1.44-.46,2.33,2.33,0,0,0,.39-1.51V75.31L392.68,75Z"/><path class="cls-4" d="M401.61,58.44l3.13-.07-1.31-1.06-1.75-.24.18-3.53,1.56-.19v-5.5a2.34,2.34,0,0,0-.39-1.51,1.83,1.83,0,0,0-1.44-.46h-7q-1.9,0-1.9,2v3l1.24,1.4-2.64.24-.41,6.46,10.73-.48Z"/><path class="cls-4" d="M440.88,91.63l-.59-2.36H425.95l2,1.34,2,.2.18.82a2.18,2.18,0,0,0,2.31,2h7.09Q441.44,93.59,440.88,91.63Z"/><path class="cls-4" d="M429,86.7h1l.21,1h10.73l-.64-2.56h-1L430,47.85a2.28,2.28,0,0,0-2.38-2h-7.15a2.33,2.33,0,0,0-2.46,2L412.51,70h-1.38V70l-2.73.1,1.32,1,1.63.2.45,2.73,9.8.33-.38-2.13L417.5,71l4.43,0q.77-3.72,1.9-12.56.9,8.14,1.75,12.56l1.2,6.29h-6.14l.27-1.34-9.8-.33-4,16.07q-.56,2,1.47,2h6.46a2.18,2.18,0,0,0,2.31-2l1.29-5.92h10.13Z"/><path class="cls-4" d="M329.75,57.81q0-3.65,4.91-3.65t5,3.65V68h10.73V56.62a10.15,10.15,0,0,0-3.82-8.07q-3.82-3.23-11.9-3.23t-11.86,3.23A10.17,10.17,0,0,0,319,56.62V74.9h10.73Z"/><path class="cls-4" d="M349.47,72.29l2.24-2.07L341,70.54l-2.24,2.22.11,8.86,2.15.19-1.55,1.13q-.77,2.38-4.79,2.38-4.91,0-4.91-3.65V79.95h-.35l.28-1.4,1.54-.23L333.09,77l-3.14.19v0l-10.73.32-1,4.68,3.94-.25L319,83.4c0,3.23,1.25,5.38,3.78,7.53s6.48,3.23,11.86,3.23,9.35-1.08,11.9-3.23a10.13,10.13,0,0,0,3.82-8.06v-2.2l-.8,0Z"/><path class="cls-4" d="M312.22,63.44H300.08V59.52l-10.73.32v15h10.73V72.29h12.14a1.74,1.74,0,0,0,2-2V65.27Q314.18,63.44,312.22,63.44Z"/><path class="cls-4" d="M313.13,45.88H291.24q-1.9,0-1.9,2V55l-.67-.08L288,58.5c2.62-.08,8.85-.11,11.23-.18v-1l.89.11V54.72h13.05q2,0,2-1.9V47.7Q315.09,45.89,313.13,45.88Z"/><path class="cls-4" d="M299.18,78.75l0-.78-10.73.32.11,3.67,4-.2-3.24,1.64v8.23q0,2,1.9,2h7a1.83,1.83,0,0,0,1.44-.46,2.33,2.33,0,0,0,.38-1.51V80l2.52-1.31Z"/><path class="cls-4" d="M129.23,93.59q-1.89,0-1.89-2V47.85q0-2,1.89-2h13.12q8.07,0,11.86,3.23A10.17,10.17,0,0,1,158,57.18v13q0,6.52-6.1,9.47l5.82,12a1.38,1.38,0,0,1-.21,1.44,2.13,2.13,0,0,1-1.61.53h-7.37q-1.47,0-2.1-2l-5-10.17h-3.37V91.63q0,2-1.82,2Zm8.84-38.87v17.9h4.28a6.59,6.59,0,0,0,3.65-.91A3,3,0,0,0,147.4,69V58.37q0-3.65-5.05-3.65Z"/><path class="cls-4" d="M199.24,93.59q-1.68,0-1.68-2V47.85q0-2,1.89-2h13.75q8.07,0,11.89,3.23a10.13,10.13,0,0,1,3.82,8.07V82.3a10.13,10.13,0,0,1-3.82,8.07q-3.82,3.23-11.89,3.23Zm9.05-38.87v30h4.84a6.4,6.4,0,0,0,3.65-.95,3.2,3.2,0,0,0,1.4-2.84V58.51a3.2,3.2,0,0,0-1.4-2.84,6.4,6.4,0,0,0-3.65-.95Z"/><path class="cls-4" d="M245.69,91.63a2.34,2.34,0,0,1-.39,1.51,1.82,1.82,0,0,1-1.44.46h-7q-1.89,0-1.89-2V47.85q0-2,1.89-2h7a1.82,1.82,0,0,1,1.44.46,2.34,2.34,0,0,1,.39,1.51Z"/><path class="cls-4" d="M251.86,56.62a10.17,10.17,0,0,1,3.79-8.07q3.79-3.23,11.86-3.23t11.89,3.23a10.13,10.13,0,0,1,3.82,8.07V82.86a10.13,10.13,0,0,1-3.82,8.07q-3.82,3.23-11.89,3.23t-11.86-3.23a10.17,10.17,0,0,1-3.79-8.07Zm20.63,1.19q0-3.65-5-3.65t-4.91,3.65V81.67q0,3.65,4.91,3.65t5-3.65Z"/><path class="cls-4" d="M193.84,91.63,183,47.85a2.28,2.28,0,0,0-2.39-2h-7.16a2.32,2.32,0,0,0-2.46,2L160.1,91.63q-.56,2,1.47,2H168a2.19,2.19,0,0,0,2.32-2l1.28-5.92h10.13L183,91.63a2.19,2.19,0,0,0,2.32,2h7.09Q194.41,93.59,193.84,91.63ZM173.61,77.22l1.29-6.29q.77-3.72,1.89-12.56.91,8.14,1.75,12.56l1.2,6.29Z"/><path class="cls-4" d="M173.36,43.83h6.33a2.38,2.38,0,0,0,1.47-.51l4-3.2a1.17,1.17,0,0,0-.73-2.09h-9.29a2.15,2.15,0,0,0-2.08,1.63l-.73,2.93A1,1,0,0,0,173.36,43.83Z"/><polygon class="cls-5" points="367.22 61.63 367.22 61.68 358.64 61.84 358.64 81.19 356.48 81.47 356.48 61.84 367.22 61.63"/><path class="cls-5" d="M385.68,61.28a.08.08,0,0,1,0,0l-8.55.16q-.6,2.7-4.8,2.71h-2.16q4.2,0,4.8-2.71Z"/><path class="cls-5" d="M360.54,93.6h-2.16c-1.26,0-1.89-.66-1.89-2V84.28h2.15v7.35C358.64,92.94,359.27,93.6,360.54,93.6Z"/><polygon class="cls-5" points="361.44 81.11 359.59 82.37 359.59 82.87 357.43 82.87 357.43 82.37 358.79 81.45 361.44 81.11"/><path class="cls-5" d="M379.13,75.63v5.83c0,2.43-1.66,3.65-5,3.65H372q5,0,5-3.65V75.63a2.88,2.88,0,0,0-1.4-2.53A6.45,6.45,0,0,0,372,72.2h2.15a6.46,6.46,0,0,1,3.58.91A2.88,2.88,0,0,1,379.13,75.63Z"/><path class="cls-5" d="M360.54,45.88a1.71,1.71,0,0,0-1.9,2v9.74l-1.27.19-1,2.66-2.2.1,1.07-2.76,1.28-.19V47.85a1.71,1.71,0,0,1,1.89-2Z"/><path class="cls-5" d="M375.92,55.69l-.56,3.93-2.18.1.59-4a3.36,3.36,0,0,0-.08-.62,7.62,7.62,0,0,0-3.59-.69h2.16a7.55,7.55,0,0,1,3.58.69A2.3,2.3,0,0,1,375.92,55.69Z"/><polygon class="cls-5" points="403.54 73.85 392.81 73.49 391.67 69.97 392.68 69.97 392.68 61.15 403.42 60.95 403.42 60.99 394.84 61.15 394.84 69.97 393.83 69.97 394.97 73.49 403.52 73.78 403.54 73.85"/><path class="cls-5" d="M396.74,93.6h-2.16c-1.26,0-1.89-.66-1.89-2V75l2.16.07v16.6C394.84,92.94,395.47,93.6,396.74,93.6Z"/><path class="cls-5" d="M394.84,50.85l1.24,1.39-2.63.24-.4,6.36-2.17.1.41-6.46,2.64-.24-1.25-1.39v-3a1.71,1.71,0,0,1,1.89-2h2.16c-1.27,0-1.89.66-1.89,2Z"/><path class="cls-5" d="M434.54,93.6h-2.15a2.2,2.2,0,0,1-2.32-2l-.17-.82-2-.2-2-1.34h2.16l2,1.34,2,.2.18.82A2.19,2.19,0,0,0,434.54,93.6Z"/><path class="cls-5" d="M410.77,93.6H408.6c-1.36,0-1.85-.66-1.47-2l4-16.08,2.15.07-4,16C408.92,92.94,409.41,93.6,410.77,93.6Z"/><path class="cls-5" d="M421.6,74.35v.07l-9.79-.33-.45-2.72-1.63-.2-1.32-1,2.73-.11v0h1.38L418,47.85a2.33,2.33,0,0,1,2.45-2h2.16a2.34,2.34,0,0,0-2.46,2L414.68,70H413.3v0l-2.73.11,1.33,1,1.63.2.45,2.72Z"/><path class="cls-5" d="M428.95,77.23h-2.16l-1.2-6.29c-.24-1.25-.48-2.72-.72-4.41.34-2.2.72-4.92,1.13-8.16q.91,8.15,1.76,12.56Z"/><polygon class="cls-5" points="432.36 87.67 430.2 87.67 429.99 86.7 429 86.7 428.79 85.71 430.95 85.71 431.17 86.7 432.14 86.7 432.36 87.67"/><path class="cls-5" d="M335.75,45.33q-7.25.22-10.78,3.22a10.15,10.15,0,0,0-3.78,8.06V74.89H319V56.62a10.16,10.16,0,0,1,3.79-8.06q3.77-3.23,11.86-3.23Z"/><path class="cls-5" d="M341.8,57.81V68h-2.15V57.81c0-2.15-1.29-3.35-3.89-3.6.33,0,.69,0,1.07,0Q341.81,54.17,341.8,57.81Z"/><path class="cls-5" d="M335.75,94.15h-1.08q-8.08,0-11.86-3.22c-2.53-2.15-3.78-4.31-3.78-7.53L321.84,82l2.48-.15-3.13,1.53c0,3.22,1.25,5.38,3.77,7.53Q328.5,93.93,335.75,94.15Z"/><polygon class="cls-5" points="333.1 76.96 332.9 77.1 332.11 77.15 332.12 77.12 321.38 77.44 320.41 81.98 318.22 82.12 319.23 77.44 329.95 77.12 329.95 77.15 333.1 76.96"/><path class="cls-5" d="M343.14,70.54l-2.24,2.22.11,8.86,2.15.19-1.55,1.13c-.52,1.58-2.11,2.38-4.8,2.38-.38,0-.74,0-1.08,0,2-.2,3.27-1,3.71-2.34L341,81.81l-2.15-.19-.11-8.86L341,70.54l10.73-.32-.07.06Z"/><path class="cls-5" d="M300.08,59.52v.07l-8.57.25v15h-2.16v-15Z"/><path class="cls-5" d="M293.4,45.88a1.71,1.71,0,0,0-1.89,2V55l-.68-.08-.7,3.52c-.85,0-1.59,0-2.17,0l.72-3.57.67.08V47.85a1.71,1.71,0,0,1,1.9-2Z"/><polygon class="cls-5" points="299.15 78.03 290.58 78.29 290.69 81.85 288.54 81.96 288.43 78.29 299.15 77.97 299.15 78.03"/><path class="cls-5" d="M293.4,93.6h-2.15c-1.27,0-1.9-.66-1.9-2V83.4l3-1.52,2.4-.12L291.5,83.4v8.23C291.5,92.94,292.14,93.6,293.4,93.6Z"/><circle class="cls-1" cx="69.41" cy="69.41" r="38.77"/><path class="cls-4" d="M69.43,33.07a36.38,36.38,0,0,0-36.34,36.7c.19,19.75,16.37,35.57,36,36h1.62a2.63,2.63,0,0,0,2.72-2.53V95h0V86.79a7.52,7.52,0,0,0,2-.82l3.47-2a7.71,7.71,0,0,0,3.79-6.62V58.38a7.65,7.65,0,0,0-4.67-7.06L70.24,48a7.7,7.7,0,0,0-6.88.44l-3.46,2a7.7,7.7,0,0,0-3.8,6.63V76a7.66,7.66,0,0,0,4.66,7.06l5,2.15-1.62,5.52A3.29,3.29,0,0,0,64.31,93h0l3.88,10.25A33.93,33.93,0,0,1,35.55,69.41c0-.54,0-1.08,0-1.62A34,34,0,0,1,67.81,35.56c.54,0,1.08,0,1.62,0a33.86,33.86,0,0,1,24.84,56.9,17.61,17.61,0,0,1-5.15,3.38L89,97a.68.68,0,0,0-.31-.57c-.37-.31-1.53.25-1.53.25h0c-2.4,1-4.77,1.79-6.19,2.22a2.63,2.63,0,0,0-1.33,2.83c.12,1.45,1,2.27,2.36,1.78A36.34,36.34,0,0,0,69.43,33.07ZM61.72,80.81A5.22,5.22,0,0,1,58.55,76v-.3l2.09-1.22a2,2,0,0,0,1-1.75v-.48l3.72-2.18a3.24,3.24,0,0,1,2.92-.19l4.85,2.06a.19.19,0,0,0,.26-.17V70.36a1.1,1.1,0,0,0-.68-1l-4.43-1.88a3.26,3.26,0,0,0-2.92.19l-6.81,4V71l2.09-1.22a2,2,0,0,0,1-1.75V67.5l3.72-2.18a3.24,3.24,0,0,1,2.92-.19l3.49,1.48a.26.26,0,0,0,.35-.33l-.73-1.93a1,1,0,0,0-.52-.54l-2.58-1.1a3.24,3.24,0,0,0-2.92.19l-6.81,4v-.69L60.64,65a2,2,0,0,0,1-1.75v-.48l3.72-2.18a3.26,3.26,0,0,1,2.92-.19l2.16.92a1,1,0,0,0,1.22-.43l.47-.85a.36.36,0,0,0-.17-.5L68.28,58a3.24,3.24,0,0,0-2.92.19l-6.81,4v-.69l2.09-1.22a2,2,0,0,0,1-1.75V58l3.72-2.18a3.26,3.26,0,0,1,2.92-.19l4.43,1.88a.49.49,0,0,0,.68-.45V55.64a.42.42,0,0,0-.25-.38L68.28,53.2a3.26,3.26,0,0,0-2.92.19l-6.81,4v-.29c0-.13,0-.25,0-.37l2.07-1.21a2,2,0,0,0,1-1.75V52.28h0l3-1.73a5.25,5.25,0,0,1,4.68-.3l7.86,3.33a5.19,5.19,0,0,1,3.18,4.72l-4.15-1.76a.19.19,0,0,0-.26.17v1.62a.8.8,0,0,0,.49.73l3.93,1.67v2.33L77.58,61.9a.25.25,0,0,0-.33.31L78,64.29a.57.57,0,0,0,.31.33l2,.86v2.33l-1.79-.76a.56.56,0,0,0-.71.26l-.55,1.13a.43.43,0,0,0,.22.58l2.83,1.2v2.33l-4-1.7a.31.31,0,0,0-.42.28v1.71a.4.4,0,0,0,.25.36L80.31,75v2.32a5.24,5.24,0,0,1-2.57,4.5l-3.47,2a5.35,5.35,0,0,1-.79.38V82.68l3.39-2A4.33,4.33,0,0,0,79,77a.86.86,0,0,0-.54-.8l-.11,0a.87.87,0,0,0-1.19.8,2.81,2.81,0,0,1-1.38,2.41l-2.65,1.55a3.29,3.29,0,0,0-.78-1l.81-.48a4.33,4.33,0,0,0,2.13-3.72.86.86,0,0,0-.54-.8l-.11,0a.87.87,0,0,0-1.19.8A2.81,2.81,0,0,1,72.06,78l-1.71,1h-.22a3.35,3.35,0,0,0-3.22,2.4l-.42,1.43Zm4.94,11.41a.87.87,0,0,1-.14-.79l1.54-5.25.7-2.37.5-1.71a.9.9,0,0,1,1.76.26V92.58H67.38A.87.87,0,0,1,66.67,92.22ZM67.35,95l-.25-.76h1.76v5.47Z"/><path class="cls-5" d="M77.74,81.82a5.24,5.24,0,0,0,2.57-4.5V75l-4.17-1.77a.4.4,0,0,1-.25-.36V71.15a.31.31,0,0,1,.42-.28l4,1.7V70.24L77.48,69a.43.43,0,0,1-.22-.58l.55-1.13a.56.56,0,0,1,.71-.26l1.79.76V65.48l-2-.86a.57.57,0,0,1-.31-.33l-.72-2.08a.25.25,0,0,1,.33-.31l2.73,1.16V60.73l-3.93-1.67a.8.8,0,0,1-.49-.73V56.71a.19.19,0,0,1,.26-.17l4.15,1.76a5.19,5.19,0,0,0-3.18-4.72l-7.86-3.33a5.25,5.25,0,0,0-4.68.3l-3,1.73h0v1.47a2,2,0,0,1-1,1.75l-2.07,1.21c0,.12,0,.25,0,.37v.29l6.81-4a3.26,3.26,0,0,1,2.92-.19l4.85,2.06a.42.42,0,0,1,.26.38v1.41a.49.49,0,0,1-.68.45l-4.43-1.88a3.26,3.26,0,0,0-2.92.19L61.64,58v.47a2,2,0,0,1-1,1.75l-2.09,1.22v.69l6.81-4A3.24,3.24,0,0,1,68.28,58L72,59.51a.36.36,0,0,1,.17.5l-.47.85a1,1,0,0,1-1.22.43l-2.16-.92a3.26,3.26,0,0,0-2.92.19l-3.72,2.18v.48a2,2,0,0,1-1,1.75l-2.09,1.22v.69l6.81-4a3.24,3.24,0,0,1,2.92-.19l2.58,1.1a1,1,0,0,1,.52.54l.73,1.93a.26.26,0,0,1-.35.33l-3.49-1.48a3.24,3.24,0,0,0-2.92.19L61.64,67.5V68a2,2,0,0,1-1,1.75L58.55,71v.69l6.81-4a3.26,3.26,0,0,1,2.92-.19l4.43,1.88a1.1,1.1,0,0,1,.68,1v1.41a.19.19,0,0,1-.26.17l-4.85-2.06a3.24,3.24,0,0,0-2.92.19l-3.72,2.18v.48a2,2,0,0,1-1,1.75L58.55,75.7V76a5.22,5.22,0,0,0,3.17,4.81l4.77,2,.42-1.43A3.35,3.35,0,0,1,70.13,79h.22l1.71-1a2.81,2.81,0,0,0,1.38-2.41.87.87,0,0,1,1.19-.8l.11,0a.86.86,0,0,1,.54.8,4.33,4.33,0,0,1-2.13,3.72l-.81.48a3.29,3.29,0,0,1,.78,1l2.65-1.55a2.81,2.81,0,0,0,1.38-2.41.87.87,0,0,1,1.19-.8l.11,0A.86.86,0,0,1,79,77a4.33,4.33,0,0,1-2.13,3.72l-3.39,2v1.55a5.35,5.35,0,0,0,.79-.38Z"/><path class="cls-2" d="M80.31,77.31V75l-4.17-1.77a.4.4,0,0,1-.25-.36V71.15a.31.31,0,0,1,.42-.28l4,1.7V70.24L77.48,69a.43.43,0,0,1-.22-.58l.55-1.13a.56.56,0,0,1,.71-.26l1.79.76V65.48l-2-.86a.57.57,0,0,1-.31-.33l-.72-2.08a.25.25,0,0,1,.33-.31l2.73,1.16V60.73l-3.93-1.67a.8.8,0,0,1-.49-.73V56.71a.19.19,0,0,1,.26-.17l4.15,1.76a5.19,5.19,0,0,0-3.18-4.72l-7.86-3.33a5.25,5.25,0,0,0-4.68.3l-1.71,1v3.29l2.47-1.45a3.26,3.26,0,0,1,2.92-.19l4.85,2.06a.42.42,0,0,1,.26.38v1.41a.49.49,0,0,1-.68.45l-4.43-1.88a3.26,3.26,0,0,0-2.92.19l-2.47,1.45v2.33l2.47-1.45A3.24,3.24,0,0,1,68.28,58L72,59.51a.36.36,0,0,1,.17.5l-.47.85a1,1,0,0,1-1.22.43l-2.16-.92a3.26,3.26,0,0,0-2.92.19L62.89,62v2.34l2.47-1.45a3.24,3.24,0,0,1,2.92-.19l2.58,1.1a1,1,0,0,1,.52.54l.73,1.93a.26.26,0,0,1-.35.33l-3.49-1.48a3.24,3.24,0,0,0-2.92.19l-2.47,1.45V69.1l2.47-1.45a3.26,3.26,0,0,1,2.92-.19l4.43,1.88a1.1,1.1,0,0,1,.68,1v1.41a.19.19,0,0,1-.26.17l-4.85-2.06a3.24,3.24,0,0,0-2.92.19l-2.47,1.45v2.59a3.54,3.54,0,0,0,2,3.19l4,1.95a3.34,3.34,0,0,1,1.2-.23h.22l1.71-1a2.81,2.81,0,0,0,1.38-2.41.87.87,0,0,1,1.19-.8l.11,0a.86.86,0,0,1,.54.8,4.33,4.33,0,0,1-2.13,3.72l-.81.48a3.29,3.29,0,0,1,.78,1l2.65-1.55a2.81,2.81,0,0,0,1.38-2.41.87.87,0,0,1,1.19-.8l.11,0A.86.86,0,0,1,79,77a4.33,4.33,0,0,1-2.13,3.72L74.63,82l1.54.74,1.57-.92A5.24,5.24,0,0,0,80.31,77.31Z"/><path class="cls-4" d="M75,67.13,76.07,65a.31.31,0,0,0,0-.25l-1.2-3.38a.31.31,0,0,0-.58,0l-1.09,2.13a.31.31,0,0,0,0,.25l1.2,3.38A.31.31,0,0,0,75,67.13Z"/><path class="cls-4" d="M71.57,74.35a.87.87,0,0,0-.54-.8l-.11,0a.87.87,0,0,0-1.19.8,2.8,2.8,0,0,1-1.38,2.41l-4.13,2.42a.87.87,0,0,0,.88,1.5l4.35-2.56A4.34,4.34,0,0,0,71.57,74.35Z"/><ellipse class="cls-2" cx="81.27" cy="101.35" rx="0.62" ry="1.07"/><polygon class="cls-2" points="68.85 99.74 67.34 95.02 67.1 94.28 68.85 94.28 68.85 99.74"/><path class="cls-2" d="M71,92.59H67.37a.9.9,0,0,1-.74-.37.82.82,0,0,1-.12-.77l1.54-5.27.68-2.34.52-1.73a.9.9,0,0,1,1.76.28Z"/></g></g></svg>